<svg width="200" height="147" viewBox="0 0 200 147" fill="none" xmlns="http://www.w3.org/2000/svg">
<g clip-path="url(#clip0_240_256)">
<path d="M197.558 67.6319L103.236 1.05753C102.264 0.367991 101.103 -0.00244141 99.9119 -0.00244141C98.7209 -0.00244141 97.5593 0.367991 96.5882 1.05753L2.51796 67.6319C1.39748 68.5473 0.663973 69.852 0.464189 71.285C0.264405 72.718 0.61308 74.1736 1.44045 75.3606C2.26783 76.5475 3.51288 77.3783 4.9265 77.6867C6.34012 77.9951 7.81805 77.7583 9.0646 77.0238L30.6937 61.7399V113.735C30.7904 115.195 31.4386 116.564 32.5069 117.564C33.5753 118.564 34.9839 119.121 36.4472 119.121C37.9105 119.121 39.3191 118.564 40.3875 117.564C41.4559 116.564 42.104 115.195 42.2007 113.735V53.6321L100.113 12.7911L158.026 53.6321V113.735C158.026 115.258 158.631 116.718 159.707 117.795C160.784 118.871 162.244 119.476 163.767 119.476C165.289 119.476 166.75 118.871 167.826 117.795C168.903 116.718 169.508 115.258 169.508 113.735V61.7399L191.137 77.0238C192.382 77.9053 193.927 78.2559 195.431 77.9986C196.935 77.7412 198.275 76.897 199.157 75.6515C200.038 74.4061 200.389 72.8615 200.131 71.3575C199.874 69.8535 199.03 68.5134 197.784 67.6319" fill="white"/>
<path d="M91.9553 71.5852H70.855C70.3608 71.5852 69.8869 71.3889 69.5374 71.0395C69.188 70.69 68.9917 70.2161 68.9917 69.7219V56.0747C68.9917 55.5805 69.188 55.1066 69.5374 54.7572C69.8869 54.4077 70.3608 54.2114 70.855 54.2114H91.9553C92.1988 54.2114 92.4399 54.2598 92.6646 54.3537C92.8893 54.4477 93.093 54.5853 93.264 54.7587C93.4351 54.932 93.5699 55.1376 93.6608 55.3636C93.7517 55.5895 93.7968 55.8312 93.7934 56.0747V69.7219C93.7968 69.9654 93.7517 70.2072 93.6608 70.4331C93.5699 70.659 93.4351 70.8646 93.264 71.038C93.093 71.2113 92.8893 71.349 92.6646 71.4429C92.4399 71.5369 92.1988 71.5852 91.9553 71.5852Z" fill="white"/>
<path d="M129.145 71.5852H108.045C107.551 71.5852 107.077 71.3889 106.727 71.0395C106.378 70.69 106.182 70.2161 106.182 69.7219V56.0747C106.182 55.5805 106.378 55.1066 106.727 54.7572C107.077 54.4077 107.551 54.2114 108.045 54.2114H129.145C129.389 54.2114 129.63 54.2598 129.855 54.3537C130.079 54.4477 130.283 54.5853 130.454 54.7587C130.625 54.932 130.76 55.1376 130.851 55.3636C130.942 55.5895 130.987 55.8312 130.983 56.0747V69.7219C130.987 69.9654 130.942 70.2072 130.851 70.4331C130.76 70.659 130.625 70.8646 130.454 71.038C130.283 71.2113 130.079 71.349 129.855 71.4429C129.63 71.5369 129.389 71.5852 129.145 71.5852Z" fill="white"/>
<path d="M91.9553 96.387H70.855C70.3608 96.387 69.8869 96.1907 69.5374 95.8412C69.188 95.4918 68.9917 95.0179 68.9917 94.5237V80.8765C68.9917 80.3823 69.188 79.9084 69.5374 79.5589C69.8869 79.2095 70.3608 79.0132 70.855 79.0132H91.9553C92.1988 79.0132 92.4399 79.0615 92.6646 79.1555C92.8893 79.2494 93.093 79.3871 93.264 79.5604C93.4351 79.7338 93.5699 79.9394 93.6608 80.1653C93.7517 80.3912 93.7968 80.633 93.7934 80.8765V94.5237C93.7968 94.7672 93.7517 95.0089 93.6608 95.2348C93.5699 95.4608 93.4351 95.6664 93.264 95.8397C93.093 96.0131 92.8893 96.1507 92.6646 96.2447C92.4399 96.3386 92.1988 96.387 91.9553 96.387Z" fill="white"/>
<path d="M129.145 96.387H108.045C107.551 96.387 107.077 96.1907 106.727 95.8412C106.378 95.4918 106.182 95.0179 106.182 94.5237V80.8765C106.182 80.3823 106.378 79.9084 106.727 79.5589C107.077 79.2095 107.551 79.0132 108.045 79.0132H129.145C129.389 79.0132 129.63 79.0615 129.855 79.1555C130.079 79.2494 130.283 79.3871 130.454 79.5604C130.625 79.7338 130.76 79.9394 130.851 80.1653C130.942 80.3912 130.987 80.633 130.983 80.8765V94.5237C130.987 94.7672 130.942 95.0089 130.851 95.2348C130.76 95.4608 130.625 95.6664 130.454 95.8397C130.283 96.0131 130.079 96.1507 129.855 96.2447C129.63 96.3386 129.389 96.387 129.145 96.387Z" fill="white"/>
<path d="M41.0173 146.318V137.782H34.0174V146.318H28.5283V124.915H34.0174V132.972H41.0173V124.915H46.4812V146.318H41.0173Z" fill="white"/>
<path d="M55.4953 133.753H50.4846V138.663H55.4953V133.753Z" fill="white"/>
<path d="M59.4485 146.318V124.915H66.2973C67.4443 124.885 68.5914 124.97 69.7217 125.167C70.971 125.396 72.1006 126.056 72.9146 127.031C73.7287 128.006 74.1758 129.235 74.1784 130.505C74.2 131.389 73.9761 132.262 73.5317 133.026C73.0872 133.791 72.4395 134.417 71.6605 134.836C72.7384 135.14 73.6781 135.808 74.3204 136.725C74.9628 137.643 75.2684 138.755 75.1856 139.872C75.2019 140.852 74.9815 141.821 74.5432 142.698C74.1048 143.574 73.4615 144.332 72.6677 144.907C70.8761 146.148 68.6798 146.661 66.5239 146.343L59.4485 146.318ZM66.8512 133.048C68.2109 133.048 68.9411 132.469 68.9411 131.336C68.9411 130.203 68.2361 129.724 66.8764 129.724H64.6858V133.048H66.8512ZM67.4807 141.533C69.0167 141.533 69.9987 140.854 69.9987 139.469C69.9987 138.084 69.1677 137.631 67.4807 137.631H64.6858V141.533H67.4807Z" fill="white"/>
<path d="M89.0848 124.915H94.5487V138.008C94.6679 139.752 94.3019 141.495 93.4912 143.044C92.7462 144.224 91.7004 145.184 90.4613 145.826C89.2221 146.468 87.8345 146.768 86.441 146.695C84.8471 146.751 83.2666 146.386 81.8583 145.638C80.5573 144.891 79.5081 143.774 78.8445 142.428C78.1808 141.083 77.9327 139.571 78.1318 138.084V124.915H83.5957V137.958C83.5957 140.627 84.4266 141.911 86.3654 141.911C88.3042 141.911 89.0848 141.005 89.0848 137.983V124.915Z" fill="white"/>
<path d="M103.84 124.915H98.376V146.318H103.84V124.915Z" fill="white"/>
<path d="M107.869 146.318V124.915H113.307V141.533H119.653V146.343L107.869 146.318Z" fill="white"/>
<path d="M121.541 146.317V124.915H128.843C131.009 124.828 133.163 125.278 135.113 126.224C136.731 127.186 138.055 128.571 138.943 130.231C139.83 131.891 140.247 133.762 140.149 135.641C140.149 142.692 135.994 146.343 129.321 146.343L121.541 146.317ZM129.473 141.533C132.62 141.533 134.508 139.569 134.508 135.667C134.508 131.764 132.57 129.724 129.473 129.724H126.955V141.533H129.473Z" fill="white"/>
<path d="M143.296 146.318V124.915H155.181V129.724H148.558V133.048H155.004V137.857H148.558V141.533H155.206V146.318H143.296Z" fill="white"/>
<path d="M168.828 146.318L163.792 139.418V146.318H158.63V124.915H165.63C167.343 124.861 169.05 125.126 170.666 125.696C171.884 126.303 172.902 127.248 173.599 128.417C174.295 129.587 174.641 130.932 174.594 132.293C174.687 133.873 174.198 135.432 173.219 136.675C172.24 137.919 170.839 138.76 169.281 139.041L175.098 146.343L168.828 146.318ZM165.832 135.692C168.022 135.692 169.332 134.685 169.332 132.62C169.332 130.555 167.947 129.724 165.907 129.724H163.817V135.692H165.832Z" fill="white"/>
</g>
<defs>
<clipPath id="clip0_240_256">
<rect width="200" height="146.746" fill="white"/>
</clipPath>
</defs>
</svg>
